<?xml version="1.0" standalone="no"?>
<!DOCTYPE svg PUBLIC "-//W3C//DTD SVG 20010904//EN"
 "http://www.w3.org/TR/2001/REC-SVG-20010904/DTD/svg10.dtd">
<svg version="1.0" xmlns="http://www.w3.org/2000/svg"
 width="269.000000pt" height="269.000000pt" viewBox="0 0 269.000000 269.000000"
 preserveAspectRatio="xMidYMid meet">
<metadata>
Created by potrace 1.14, written by Peter Selinger 2001-2017
</metadata>
<g transform="translate(0.000000,269.000000) scale(0.100000,-0.100000)"
fill="#000000" stroke="none">
<path d="M472 2573 c-20 -29 -26 -47 -38 -123 -3 -19 -7 -41 -10 -49 -7 -20
-15 -107 -16 -178 -1 -67 -8 -83 -55 -134 -19 -20 -45 -52 -58 -71 -14 -18
-29 -38 -34 -44 -5 -6 -26 -42 -47 -80 -20 -38 -50 -81 -65 -96 -15 -14 -25
-29 -21 -32 3 -3 -1 -6 -9 -6 -8 -1 -29 -21 -48 -47 l-33 -45 27 -24 c15 -12
32 -25 37 -26 6 -2 -1 -21 -15 -44 -33 -50 -73 -151 -72 -184 0 -22 4 -25 37
-24 23 1 39 -4 42 -12 3 -8 2 -14 -3 -14 -5 0 -9 -12 -8 -27 0 -16 -3 -44 -7
-63 -4 -19 -9 -79 -11 -132 -2 -77 2 -115 19 -181 24 -88 91 -237 107 -237 5
0 9 -5 9 -11 0 -6 15 -28 33 -48 67 -77 77 -91 64 -92 -6 0 -1 -5 12 -10 16
-6 22 -15 18 -28 -3 -15 -1 -18 11 -14 10 4 13 2 8 -5 -4 -7 -1 -12 8 -12 8 0
17 -8 20 -18 4 -11 17 -25 31 -32 13 -7 22 -17 19 -22 -3 -4 1 -8 8 -8 7 0 27
-13 43 -28 17 -15 53 -43 80 -62 28 -18 53 -38 57 -44 4 -6 8 -7 8 -2 0 4 11
1 25 -8 13 -9 31 -16 40 -16 9 0 14 -4 11 -8 -4 -7 50 -24 120 -38 24 -4 131
-17 162 -19 17 -1 35 -5 39 -8 3 -4 12 -7 20 -7 7 0 55 -16 106 -36 69 -27
110 -37 163 -39 75 -3 165 9 199 26 11 5 29 11 40 13 59 12 202 96 187 110 -4
4 -2 7 3 5 6 -1 24 4 40 11 17 7 38 12 48 11 9 -1 17 2 17 6 0 5 9 9 19 10 11
1 38 14 61 28 45 28 90 41 90 27 0 -5 64 -10 142 -10 79 -1 144 -6 147 -11 7
-11 94 -50 126 -57 45 -10 85 -11 91 -3 3 5 10 7 15 4 5 -4 19 1 31 9 12 9 19
16 14 16 -4 0 6 25 23 55 17 30 31 60 31 66 0 6 9 22 20 36 25 32 25 60 1 98
-23 36 -140 157 -197 203 -27 22 -46 48 -55 75 -7 23 -22 62 -33 87 -10 25
-20 47 -20 50 -6 26 -97 157 -141 202 -30 32 -54 58 -52 58 3 0 -10 15 -27 33
-21 23 -35 52 -44 93 -7 32 -13 63 -12 68 1 5 -4 12 -10 16 -6 4 -13 18 -14
31 -7 57 -77 245 -87 234 -3 -2 -5 5 -6 15 -1 11 -29 60 -62 110 -60 89 -70
110 -51 110 5 0 12 11 16 25 3 14 11 22 17 18 6 -4 8 0 4 10 -3 10 -3 17 2 17
4 0 8 6 8 13 1 6 10 38 22 71 11 32 18 62 15 67 -3 5 -1 9 3 9 5 0 10 10 10
23 1 12 5 46 8 76 7 63 -2 74 -49 59 -17 -5 -38 -11 -46 -13 -55 -12 -69 -18
-65 -25 2 -4 -6 -6 -18 -5 -12 1 -33 -2 -47 -8 -14 -5 -32 -11 -40 -12 -8 -2
-26 -6 -40 -9 -51 -12 -76 -17 -105 -21 -16 -2 -45 -6 -64 -9 -18 -3 -36 -7
-39 -10 -3 -3 -10 -2 -16 3 -14 11 -134 61 -161 67 -11 2 -33 7 -50 10 -63 14
-195 18 -285 9 l-56 -5 -79 81 c-44 45 -100 98 -125 118 -25 20 -47 38 -50 42
-18 20 -80 59 -93 59 -8 0 -17 5 -19 12 -2 6 -14 -2 -26 -19z"/>
</g>
</svg>
