<?xml version="1.0" standalone="no"?>
<!DOCTYPE svg PUBLIC "-//W3C//DTD SVG 20010904//EN"
 "http://www.w3.org/TR/2001/REC-SVG-20010904/DTD/svg10.dtd">
<svg version="1.0" xmlns="http://www.w3.org/2000/svg"
 width="260.000000pt" height="260.000000pt" viewBox="0 0 260.000000 260.000000"
 preserveAspectRatio="xMidYMid meet">
<metadata>
Created by potrace 1.14, written by Peter Selinger 2001-2017
</metadata>
<g transform="translate(0.000000,260.000000) scale(0.100000,-0.100000)"
fill="#000000" stroke="none">
<path d="M466 2499 c2 -4 -4 -12 -13 -18 -10 -6 -14 -11 -9 -11 5 0 4 -6 -2
-13 -6 -7 -13 -31 -16 -52 -2 -22 -5 -40 -6 -40 -4 0 -11 -44 -13 -82 -1 -24
-4 -43 -7 -43 -3 0 -5 -30 -5 -67 1 -72 -12 -111 -51 -152 -49 -52 -84 -96
-84 -106 0 -5 -11 -23 -25 -39 -14 -16 -25 -35 -25 -43 0 -7 -5 -13 -11 -13
-5 0 -7 -5 -4 -10 3 -6 -1 -13 -9 -16 -9 -3 -14 -10 -11 -14 3 -4 -2 -13 -10
-20 -8 -7 -12 -16 -9 -21 3 -5 -3 -6 -13 -2 -10 3 -15 3 -12 -1 4 -4 -13 -28
-37 -53 -24 -25 -44 -49 -44 -53 0 -5 -3 -15 -6 -24 -4 -10 -1 -16 8 -16 7 0
24 -7 37 -17 20 -14 22 -18 9 -27 -8 -6 -16 -15 -18 -21 -2 -5 -16 -37 -31
-70 -15 -34 -31 -78 -35 -100 -6 -33 -5 -37 9 -32 9 3 19 2 23 -4 4 -7 10 -6
19 1 24 20 26 4 10 -100 -9 -60 -16 -163 -14 -200 1 -19 2 -43 2 -52 1 -10 4
-18 7 -18 4 0 7 -6 7 -12 1 -30 15 -84 23 -92 5 -5 6 -15 3 -22 -3 -8 1 -14 8
-14 7 0 9 -3 6 -6 -4 -4 3 -19 14 -35 10 -15 18 -31 17 -36 -5 -13 28 -53 37
-45 5 4 5 2 1 -5 -3 -6 5 -23 19 -37 14 -14 22 -26 18 -26 -4 0 3 -7 15 -16
12 -8 20 -20 17 -25 -4 -5 1 -9 10 -9 9 0 13 -4 10 -10 -3 -5 -1 -10 4 -10 6
0 11 -9 11 -20 0 -18 11 -25 34 -21 5 1 3 -6 -5 -15 -9 -12 -9 -15 -1 -10 7 4
12 2 12 -8 0 -8 9 -18 20 -21 11 -3 20 -15 20 -25 0 -12 5 -17 13 -14 8 3 22
-7 33 -21 10 -14 24 -25 31 -25 7 0 13 -5 13 -10 0 -6 11 -15 25 -22 13 -6 22
-15 19 -19 -3 -5 4 -9 15 -9 11 0 24 -6 28 -14 4 -7 24 -21 43 -31 18 -10 40
-23 47 -31 7 -7 22 -11 32 -9 11 2 22 -3 25 -11 3 -9 10 -12 16 -9 5 3 16 3
22 -2 15 -9 29 -11 80 -15 21 -2 38 -5 38 -8 0 -3 12 -6 28 -7 66 -2 101 -7
97 -13 -2 -3 7 -7 21 -8 56 -5 64 -7 64 -14 0 -4 8 -8 19 -8 10 0 24 -6 31
-14 6 -8 19 -12 27 -9 12 5 14 3 8 -8 -7 -11 -5 -11 10 1 11 9 16 10 11 3 -7
-13 2 -15 62 -16 12 0 22 -3 22 -6 0 -3 11 -6 25 -6 14 0 25 3 25 7 0 8 21 5
38 -5 6 -5 12 -4 12 1 0 5 10 10 23 10 12 1 29 3 37 5 51 13 77 22 99 33 14 8
32 14 39 14 6 0 12 4 12 10 0 5 6 7 13 4 7 -2 26 7 43 21 16 14 35 25 42 25 6
0 12 4 12 10 0 14 55 40 83 40 14 0 27 7 31 15 3 8 12 12 21 9 8 -3 15 -1 15
4 0 6 9 9 20 7 12 -2 20 2 20 9 0 13 35 30 54 26 6 0 30 -3 54 -6 25 -2 48 -7
53 -10 5 -3 9 -1 9 3 0 5 25 6 55 3 30 -3 55 -3 55 0 0 11 60 4 72 -8 7 -7 18
-12 25 -12 7 0 13 -5 13 -12 0 -6 3 -9 6 -5 4 3 20 -1 36 -9 16 -8 42 -17 56
-19 15 -1 29 -4 32 -5 12 -6 56 3 69 13 12 9 13 9 7 -1 -4 -6 -4 -12 -1 -12
12 0 35 29 35 44 0 8 8 20 17 25 10 6 14 11 9 11 -4 0 -1 12 9 26 9 14 18 35
20 47 3 11 8 23 13 26 5 3 14 16 21 29 9 17 9 22 0 22 -7 0 -10 3 -6 6 11 12
-22 61 -81 123 -33 33 -57 63 -54 66 3 3 0 5 -7 5 -6 0 -23 11 -37 25 -14 14
-31 22 -37 19 -7 -4 -9 -4 -5 1 4 4 1 13 -8 19 -8 6 -16 18 -18 26 -2 8 -6 23
-10 32 -4 9 -8 22 -10 30 -1 7 -5 19 -9 25 -5 7 -10 22 -12 33 -2 11 -11 27
-20 36 -8 9 -13 19 -10 24 3 4 -2 13 -10 20 -8 7 -15 19 -15 26 0 8 -4 14 -10
14 -5 0 -10 6 -10 14 0 7 -18 33 -40 56 -22 23 -40 44 -40 46 0 2 -18 22 -40
44 -22 22 -40 45 -40 51 0 6 -4 8 -8 5 -7 -4 -14 15 -37 104 -1 3 -4 12 -7 20
-3 8 -11 35 -18 60 -7 25 -15 52 -18 60 -3 8 -7 24 -9 35 -2 11 -8 22 -14 23
-6 3 -6 9 2 18 8 10 8 14 0 14 -6 0 -11 7 -11 15 0 8 -5 15 -10 15 -6 0 -9 3
-8 8 1 4 -3 17 -10 28 -6 12 -8 24 -5 28 3 3 1 6 -6 6 -7 0 -10 4 -7 8 3 5 -3
14 -14 22 -10 7 -16 19 -14 25 3 7 -2 15 -10 18 -9 4 -16 13 -16 22 0 8 -4 15
-10 15 -5 0 -10 7 -10 15 0 8 -4 15 -10 15 -5 0 -10 6 -10 14 0 7 -7 19 -15
26 -11 9 -12 15 -2 25 7 7 15 11 19 8 4 -2 5 3 2 11 -3 9 -2 16 4 16 5 0 12 8
15 18 4 9 13 34 20 54 8 21 10 35 4 31 -6 -3 -3 4 6 18 9 13 17 34 17 46 0 13
5 23 11 23 8 0 8 5 -1 15 -7 9 -8 15 -2 15 6 0 9 11 8 25 -2 13 0 22 4 20 4
-2 7 14 6 35 -1 46 -9 49 -82 36 -16 -3 -30 -10 -32 -15 -2 -6 -10 -7 -18 -4
-8 3 -14 0 -14 -6 0 -6 -7 -8 -17 -4 -11 5 -14 3 -8 -6 6 -10 3 -11 -14 -2
-14 8 -21 8 -21 1 0 -5 -11 -10 -25 -10 -14 0 -25 -4 -25 -8 0 -8 -32 -14 -82
-16 -16 -1 -28 -4 -28 -8 0 -4 -9 -5 -20 -3 -11 2 -20 0 -20 -4 0 -5 -11 -7
-25 -6 -14 2 -27 0 -30 -4 -9 -15 -98 4 -116 25 -6 8 -22 14 -35 14 -13 0 -24
4 -24 9 0 5 -11 8 -25 6 -14 -1 -28 1 -30 6 -3 4 -14 6 -25 4 -11 -2 -22 0
-25 5 -3 5 -22 9 -43 10 -59 2 -194 0 -232 -3 -31 -2 -42 5 -115 78 -99 99
-198 185 -213 185 -7 0 -12 5 -12 10 0 6 -9 10 -20 10 -11 0 -20 4 -20 8 0 5
-7 9 -15 9 -8 0 -12 -4 -9 -8z"/>
</g>
</svg>
